<svg width="56" height="56" viewBox="0 0 56 56" fill="none" xmlns="http://www.w3.org/2000/svg">
<path d="M46.5115 30.282C44.7172 30.2913 43.1632 30.7218 41.8612 31.3646C41.3852 30.4138 40.9022 29.5773 40.8217 28.9555C40.7272 28.2298 40.6175 27.7958 40.7318 26.9313C40.8462 26.0668 41.3467 24.8418 41.3397 24.7496C41.3327 24.6575 41.2277 24.2176 40.1928 24.2095C39.158 24.2025 38.2725 24.409 38.1687 24.682C38.0648 24.955 37.8653 25.5698 37.7417 26.2115C37.5608 27.1495 35.6755 30.4966 34.6057 32.2466C34.2557 31.563 33.9582 30.961 33.8963 30.485C33.8018 29.7593 33.6922 29.3253 33.8065 28.4608C33.9208 27.5963 34.4213 26.3713 34.4143 26.2791C34.4073 26.187 34.3023 25.7471 33.2675 25.739C32.2327 25.732 31.3472 25.9385 31.2433 26.2115C31.1395 26.4845 31.0275 27.1226 30.8163 27.741C30.604 28.3581 28.0992 33.9406 27.4423 35.3885C27.1075 36.1258 26.817 36.7185 26.6117 37.1221L26.6105 37.1198C26.6105 37.1198 26.5977 37.1466 26.5767 37.1921C26.4005 37.5363 26.2967 37.7265 26.2967 37.7265C26.2967 37.7265 26.2978 37.7288 26.3002 37.7335C26.1602 37.9866 26.0108 38.2211 25.9373 38.2211C25.886 38.2211 25.7822 37.548 25.9595 36.624C26.3328 34.6873 27.2277 31.668 27.2195 31.563C27.2148 31.5093 27.3863 30.9831 26.635 30.7078C25.9047 30.4406 25.6445 30.8863 25.578 30.8875C25.5138 30.8886 25.466 31.045 25.466 31.045C25.466 31.045 26.2792 27.6488 23.9143 27.6488C22.435 27.6488 20.3863 29.267 19.3772 30.7335C18.7402 31.0811 17.3763 31.8255 15.9308 32.62C15.3755 32.9256 14.8085 33.2371 14.2707 33.5335C14.2345 33.4926 14.1972 33.453 14.1598 33.4121C11.291 30.352 5.98967 28.1878 6.21367 24.073C6.29533 22.5773 6.81567 18.6386 16.4022 13.8623C24.255 9.94931 30.5422 11.0261 31.6283 13.412C33.18 16.8221 28.2683 23.1583 20.1133 24.073C17.0065 24.4218 15.3697 23.2166 14.9625 22.7686C14.5343 22.2961 14.4702 22.2751 14.3103 22.3638C14.0502 22.5085 14.2147 22.925 14.3103 23.1735C14.5542 23.807 15.5528 24.9305 17.2562 25.4905C18.7553 25.9828 22.4035 26.2523 26.8147 24.5455C31.7567 22.6345 35.6148 17.3168 34.4808 12.873C33.3282 8.35331 25.8335 6.86698 18.7402 9.38698C14.5133 10.8873 9.9435 13.2416 6.657 16.3146C2.74983 19.9686 2.12683 23.1501 2.3835 24.479C3.29583 29.2016 9.80467 32.277 12.411 34.5555C12.2827 34.6266 12.1613 34.6931 12.0517 34.7538C10.745 35.4001 5.78317 37.9971 4.54183 40.74C3.13367 43.8515 4.76583 46.0845 5.84617 46.3855C9.19333 47.3165 12.628 45.6411 14.4748 42.8878C16.3205 40.1356 16.0953 36.5505 15.2483 34.9148C15.2378 34.895 15.2262 34.8751 15.2157 34.8541C15.5528 34.6546 15.897 34.4516 16.2377 34.251C16.9027 33.8601 17.556 33.4961 18.1218 33.1881C17.8045 34.0561 17.5723 35.098 17.4522 36.6018C17.3098 38.3681 18.0343 40.6513 18.9817 41.5496C19.3993 41.9451 19.901 41.9545 20.2183 41.9545C21.3208 41.9545 21.8237 41.0375 22.3778 39.9525C23.0568 38.6225 23.66 37.0731 23.66 37.0731C23.66 37.0731 22.904 41.2568 24.9643 41.2568C25.7157 41.2568 26.4705 40.2826 26.8077 39.7868C26.8088 39.7926 26.8088 39.795 26.8088 39.795C26.8088 39.795 26.8287 39.7623 26.8672 39.6981C26.9453 39.5791 26.9897 39.5033 26.9897 39.5033C26.9897 39.5033 26.9908 39.4951 26.9932 39.4811C27.2953 38.9573 27.965 37.7626 28.9683 35.7921C30.2657 33.2465 31.5093 30.0568 31.5093 30.0568C31.5093 30.0568 31.6248 30.8361 32.004 32.1265C32.2268 32.8848 32.7005 33.7236 33.075 34.5286C32.774 34.9463 32.5897 35.1855 32.5897 35.1855C32.5897 35.1855 32.5908 35.1901 32.5943 35.1983C32.354 35.518 32.0845 35.8621 31.8022 36.1981C30.7778 37.4173 29.5587 38.8103 29.3953 39.2116C29.2028 39.6853 29.2483 40.033 29.6205 40.3141C29.8923 40.5183 30.3753 40.551 30.8805 40.5171C31.801 40.4553 32.4473 40.2266 32.767 40.0878C33.2652 39.9116 33.845 39.6351 34.3887 39.235C35.3932 38.4965 35.9987 37.4406 35.9403 36.0406C35.9077 35.2695 35.6627 34.5053 35.3512 33.7843C35.4422 33.6536 35.5332 33.5206 35.6253 33.3876C37.2085 31.073 38.437 28.5296 38.437 28.5296C38.437 28.5296 38.5525 29.309 38.9317 30.5993C39.123 31.2515 39.5022 31.9643 39.8428 32.662C38.3542 33.8718 37.4313 35.2776 37.1105 36.1993C36.5178 37.905 36.9822 38.6773 37.8525 38.8535C38.2468 38.9328 38.8045 38.752 39.2233 38.5746C39.7448 38.402 40.3713 38.1138 40.957 37.6833C41.9615 36.9448 42.9275 35.9111 42.8692 34.5123C42.8423 33.8753 42.6697 33.243 42.4352 32.6363C43.6975 32.1101 45.3308 31.8185 47.4122 32.0611C51.877 32.5826 52.752 35.3698 52.5852 36.5365C52.4172 37.7031 51.4815 38.3448 51.1677 38.5385C50.855 38.7321 50.7593 38.7998 50.785 38.9433C50.8235 39.1521 50.9682 39.1451 51.2353 39.0996C51.6028 39.0378 53.5792 38.1511 53.6643 35.9975C53.7705 33.2605 51.1513 30.2575 46.5115 30.282ZM12.0983 41.8833C10.619 43.4968 8.554 44.1058 7.66733 43.5925C6.71067 43.0383 7.08983 40.663 8.904 38.9503C10.01 37.9073 11.438 36.946 12.3853 36.3545C12.6012 36.225 12.9173 36.0348 13.3023 35.8038C13.3665 35.7676 13.4027 35.7478 13.4027 35.7478L13.4015 35.7455C13.4762 35.7011 13.552 35.6556 13.6302 35.6078C14.2917 38.045 13.6512 40.1905 12.0983 41.8833ZM22.8725 34.5601C22.358 35.8155 21.28 39.0285 20.6232 38.8558C20.0597 38.7076 19.7167 36.2658 20.5112 33.8625C20.9102 32.6526 21.7642 31.2071 22.2658 30.646C23.0732 29.743 23.9622 29.4478 24.178 29.8141C24.4522 30.2808 23.1957 33.7726 22.8725 34.5601ZM31.773 38.8068C31.5548 38.9211 31.3542 38.9923 31.262 38.9375C31.1932 38.8966 31.3518 38.7461 31.3518 38.7461C31.3518 38.7461 32.4648 37.548 32.9035 37.0031C33.159 36.6858 33.4542 36.309 33.7762 35.889C33.7785 35.931 33.7797 35.973 33.7797 36.0138C33.7773 37.4488 32.3913 38.4171 31.773 38.8068ZM38.6295 37.2435C38.4662 37.128 38.4942 36.7535 39.0297 35.5856C39.2397 35.1271 39.7203 34.356 40.5533 33.6186C40.6502 33.922 40.7085 34.2125 40.7073 34.4831C40.6968 36.2891 39.4088 36.9635 38.6295 37.2435Z" fill="black"/>
</svg>
