<svg width="57" height="56" viewBox="0 0 57 56" fill="none" xmlns="http://www.w3.org/2000/svg">
<g clip-path="url(#clip0_1502_80)">
<path d="M56.4895 27.3831C56.3372 18.0206 51.117 8.90486 43.0407 4.10461C36.6777 0.141739 28.64 -0.924886 21.4002 0.903864C10.5039 3.64699 1.81686 13.5152 0.712612 24.7625C-0.659388 35.385 4.71311 46.4327 13.8945 51.8805C22.886 57.519 35.1159 57.2906 43.907 51.3555C51.8319 46.2122 56.7467 36.8305 56.4807 27.391L56.4895 27.3831ZM30.0487 51.8437C17.3236 53.1011 5.01761 42.3194 4.67374 29.5557C3.71124 19.1931 10.5406 8.94424 20.2942 5.51511C33.9722 0.0288637 50.774 10.1631 52.1836 24.8325C54.3939 38.0135 43.4214 51.4325 30.0487 51.8437ZM21.675 26.5825L40.0762 11.5325L30.1327 26.6201C27.3135 26.6201 24.4942 26.621 21.675 26.5825ZM26.8489 29.365L35.3066 29.4035L16.9054 44.4911L26.8489 29.365Z" fill="#010101"/>
</g>
<defs>
<clipPath id="clip0_1502_80">
<rect width="56" height="56" fill="white" transform="translate(0.5)"/>
</clipPath>
</defs>
</svg>
