<svg width="56" height="56" viewBox="0 0 56 56" fill="none" xmlns="http://www.w3.org/2000/svg">
<path fill-rule="evenodd" clip-rule="evenodd" d="M9.85483 48.6535L8.33583 8.20402C8.288 6.86819 9.31467 5.73769 10.6482 5.65602L37.6075 3.97019L39.6667 4.66669L42.3442 3.67385L45.0462 3.50469C46.403 3.41835 47.5732 4.44852 47.6607 5.80535C47.6642 5.85785 47.6653 5.91152 47.6653 5.96519V50.0384C47.6642 51.3999 46.5593 52.5024 45.1978 52.5012C45.1617 52.5012 45.1255 52.5 45.0905 52.4989L12.2068 51.0219C10.9258 50.9647 9.90383 49.9357 9.85483 48.6535Z" fill="black"/>
<path fill-rule="evenodd" clip-rule="evenodd" d="M42.3418 3.67383L37.6087 3.96783L37.3788 9.52233C37.3707 9.72533 37.5282 9.89566 37.7311 9.90499C37.8163 9.90849 37.8992 9.88283 37.9668 9.83149L40.1228 8.19466L41.9452 9.63083C42.1038 9.75683 42.336 9.72999 42.4608 9.57133C42.5145 9.50249 42.5425 9.41733 42.5402 9.32983L42.3441 3.67499L42.3418 3.67383ZM38.6575 22.2693C37.793 22.9425 31.3343 23.401 31.3343 22.4432C31.472 18.7857 29.8351 18.6258 28.924 18.6258C28.0618 18.6258 26.6058 18.886 26.6058 20.846C26.6058 22.8422 28.7326 23.9692 31.2293 25.2922C34.7748 27.1717 39.0693 29.4478 39.0693 35.1703C39.0693 40.6583 34.6103 43.687 28.9263 43.687C23.0592 43.687 17.9305 41.3128 18.5092 33.0832C18.7367 32.1183 26.1975 32.3482 26.1975 33.0832C26.1042 36.4793 26.8788 37.478 28.8342 37.478C30.3357 37.478 31.017 36.6497 31.017 35.2578C31.017 33.1485 28.8027 31.9037 26.2523 30.4733C22.8002 28.5355 18.7378 26.2547 18.7378 21.0187C18.7378 15.7955 22.33 12.3118 28.7431 12.3118C35.1563 12.3118 38.6575 15.743 38.6575 22.2693Z" fill="white"/>
</svg>
